<svg xmlns="http://www.w3.org/2000/svg" width="153.267" height="54" viewBox="0 0 153.267 54">
  <g id="SwaprsLogo_top" transform="translate(-26.347 -98.067)">
    <g id="Symbol" transform="translate(26.347 98.067)">
      <path id="Path_6" data-name="Path 6" d="M107.923,221.409c3.466,2.726,7.607,2.57,10.314-.389,2.766-3.024,2.55-7.32-.568-10.455q-6.9-6.941-13.844-13.844c-.339-.339-.7-.66-1.017-1.015l4.592-4.429c4.963,4.943,9.9,9.915,14.869,14.848a13.355,13.355,0,0,1,3.9,6.926c.2.991.28,2.006.379,2.747-.219,6.08-2.845,10.424-8.166,12.747-5.221,2.28-10.188,1.436-14.566-2.29Z" transform="translate(-90.116 -175.806)" fill="#15c"/>
      <path id="Path_7" data-name="Path 7" d="M45.97,136.822c-5.432-5.4-11-10.671-16.185-16.293-3.825-4.145-4.337-9.212-2.139-14.4,2.121-5,7.058-8.087,13.891-8.066,2.131-.008,5.178,1.2,7.761,3.548l-4.182,4.813c-4.565-3.653-10.534-1.993-12.038,3.386-.847,3.03.272,5.489,2.409,7.617q6.867,6.836,13.708,13.7c.423.423.856.838,1.246,1.291Z" transform="translate(-26.347 -98.067)" fill="#15c"/>
    </g>
    <text id="Swaprs" transform="translate(65.613 131.297)" fill="#15c" font-size="36" font-family="Quantify-Bold, Quantify" font-weight="700"><tspan x="0" y="0">Swaprs</tspan></text>
  </g>
</svg>
