<svg xmlns="http://www.w3.org/2000/svg" width="200.871" height="71.333" viewBox="0 0 200.871 71.333">
  <g id="SwaprsLogo_mid" transform="translate(-26.347 -98.067)">
    <g id="Symbol" transform="translate(26.347 98.067)">
      <path id="Path_6" data-name="Path 6" d="M109.565,231.08c4.578,3.6,10.049,3.395,13.624-.514,3.654-3.994,3.368-9.669-.751-13.81q-9.119-9.168-18.287-18.287c-.448-.447-.92-.872-1.343-1.341l6.066-5.85c6.556,6.53,13.074,13.1,19.642,19.614a17.641,17.641,0,0,1,5.156,9.149c.264,1.309.369,2.65.5,3.629-.29,8.032-3.758,13.77-10.787,16.839-6.9,3.011-13.459,1.9-19.242-3.025Z" transform="translate(-86.043 -170.84)" fill="#15c"/>
      <path id="Path_7" data-name="Path 7" d="M52.269,149.262c-7.176-7.127-14.526-14.1-21.38-21.523-5.053-5.476-5.73-12.169-2.826-19.016,2.8-6.607,9.323-10.683,18.35-10.655,2.815-.011,6.84,1.588,10.252,4.687l-5.524,6.358c-6.031-4.826-13.915-2.633-15.9,4.472-1.119,4,.359,7.251,3.183,10.062q9.071,9.03,18.107,18.1c.558.559,1.131,1.107,1.646,1.705Z" transform="translate(-26.347 -98.067)" fill="#15c"/>
    </g>
    <text id="Swaprs" transform="translate(78.217 142.334)" fill="#15c" font-size="47" font-family="Quantify-Bold, Quantify" font-weight="700"><tspan x="0" y="0">Swaprs</tspan></text>
  </g>
</svg>
