<svg xmlns="http://www.w3.org/2000/svg" width="246.731" height="87.644" viewBox="0 0 246.731 87.644">
  <g id="SwaprsLogo_bot" transform="translate(-26.347 -98.067)">
    <g id="Symbol" transform="translate(26.347 98.067)">
      <path id="Path_6" data-name="Path 6" d="M111.11,240.181c5.625,4.425,12.346,4.171,16.74-.631,4.49-4.908,4.138-11.88-.923-16.968q-11.2-11.265-22.469-22.469c-.55-.55-1.13-1.071-1.65-1.647l7.453-7.188c8.055,8.022,16.063,16.092,24.133,24.1a21.675,21.675,0,0,1,6.335,11.24c.324,1.608.454,3.256.615,4.459-.356,9.868-4.618,16.919-13.254,20.689-8.474,3.7-16.536,2.33-23.641-3.716Z" transform="translate(-82.209 -166.167)" fill="#15c"/>
      <path id="Path_7" data-name="Path 7" d="M58.2,160.968c-8.817-8.756-17.847-17.32-26.268-26.445-6.208-6.727-7.04-14.952-3.472-23.364C31.9,103.041,39.911,98.033,51,98.068c3.459-.014,8.4,1.951,12.6,5.759l-6.787,7.811c-7.41-5.93-17.1-3.235-19.538,5.495-1.375,4.917.442,8.909,3.91,12.362q11.146,11.1,22.248,22.233c.686.686,1.39,1.36,2.022,2.1Z" transform="translate(-26.347 -98.067)" fill="#15c"/>
    </g>
    <text id="Swaprs" transform="translate(90.078 152.309)" fill="#15c" font-size="58" font-family="Quantify-Bold, Quantify" font-weight="700"><tspan x="0" y="0">Swaprs</tspan></text>
  </g>
</svg>
